<svg xmlns="http://www.w3.org/2000/svg">
  <defs>
    <symbol id="zap" viewBox="0 0 16 20" fill="none">
      <path d="M8.8333 1.70166L1.41118 10.6082C1.12051 10.957 0.975169 11.1314 0.972948 11.2787C0.971017 11.4068 1.02808 11.5286 1.12768 11.6091C1.24226 11.7017 1.46928 11.7017 1.92333 11.7017H7.99997L7.16663 18.3683L14.5888 9.46178C14.8794 9.11297 15.0248 8.93857 15.027 8.79128C15.0289 8.66323 14.9719 8.54141 14.8723 8.46092C14.7577 8.36833 14.5307 8.36833 14.0766 8.36833H7.99997L8.8333 1.70166Z" stroke="currentColor" stroke-width="1.66667" stroke-linecap="round" stroke-linejoin="round" />
    </symbol>
    <symbol id="zap-filled" viewBox="0 0 24 24" fill="none">
      <path fill-rule="evenodd" clip-rule="evenodd" d="M13.3983 1.08269C13.8055 1.25946 14.0474 1.68353 13.9924 2.12403L13.1329 9L19.3279 8.99999C19.5689 8.99995 19.813 8.9999 20.0124 9.01796C20.201 9.03503 20.5622 9.08021 20.8754 9.33332C21.234 9.62308 21.4394 10.0616 21.4324 10.5226C21.4263 10.9253 21.2298 11.2316 21.1222 11.3875C21.0084 11.5522 20.8521 11.7397 20.6978 11.9248L11.7683 22.6402C11.4841 22.9812 11.0091 23.0941 10.6019 22.9173C10.1947 22.7405 9.95277 22.3165 10.0078 21.876L10.8673 15L4.67233 15C4.43134 15 4.18725 15.0001 3.98782 14.982C3.79921 14.965 3.43805 14.9198 3.12483 14.6667C2.76626 14.3769 2.56085 13.9383 2.5678 13.4774C2.57387 13.0747 2.77038 12.7684 2.878 12.6125C2.9918 12.4478 3.14811 12.2603 3.30242 12.0752C3.31007 12.066 3.31771 12.0568 3.32534 12.0477L12.2319 1.35981C12.5161 1.01878 12.9911 0.905925 13.3983 1.08269Z" fill="currentColor"/>
    </symbol>
    <symbol id="search" viewBox="0 0 20 21" fill="none">
      <path d="M19 19.5L14.65 15.15M17 9.5C17 13.9183 13.4183 17.5 9 17.5C4.58172 17.5 1 13.9183 1 9.5C1 5.08172 4.58172 1.5 9 1.5C13.4183 1.5 17 5.08172 17 9.5Z" stroke="currentColor" stroke-width="2" stroke-linecap="round" stroke-linejoin="round" />
    </symbol>
    <symbol id="logout" viewBox="0 0 24 25" fill="none">
      <g>
        <path d="M7.7587 2.5H9C9.55229 2.5 10 2.94772 10 3.5C10 4.05229 9.55229 4.5 9 4.5H7.8C6.94342 4.5 6.36113 4.50078 5.91104 4.53755C5.47262 4.57337 5.24842 4.6383 5.09202 4.71799C4.7157 4.90973 4.40974 5.2157 4.21799 5.59202C4.1383 5.74842 4.07337 5.97262 4.03755 6.41104C4.00078 6.86113 4 7.44342 4 8.3L4 16.7C4 17.5566 4.00078 18.1389 4.03755 18.589C4.07337 19.0274 4.1383 19.2516 4.21799 19.408C4.40973 19.7843 4.7157 20.0903 5.09202 20.282C5.24842 20.3617 5.47262 20.4266 5.91104 20.4624C6.36113 20.4992 6.94342 20.5 7.8 20.5H9C9.55229 20.5 10 20.9477 10 21.5C10 22.0523 9.55229 22.5 9 22.5H7.75868C6.95372 22.5 6.28936 22.5 5.74818 22.4558C5.18608 22.4099 4.66937 22.3113 4.18404 22.064C3.43139 21.6805 2.81947 21.0686 2.43598 20.316C2.18868 19.8306 2.09012 19.3139 2.04419 18.7518C1.99998 18.2106 1.99999 17.5463 2 16.7413V8.25871C1.99999 7.45375 1.99998 6.78936 2.0442 6.24818C2.09012 5.68608 2.18869 5.16937 2.43598 4.68404C2.81947 3.93139 3.43139 3.31947 4.18404 2.93598C4.66938 2.68868 5.18608 2.59012 5.74818 2.54419C6.28937 2.49998 6.95374 2.49999 7.7587 2.5Z" fill="currentColor"/>
        <path d="M15.2929 6.79289C15.6834 6.40237 16.3166 6.40237 16.7071 6.79289L21.7071 11.7929C22.0976 12.1834 22.0976 12.8166 21.7071 13.2071L16.7071 18.2071C16.3166 18.5976 15.6834 18.5976 15.2929 18.2071C14.9024 17.8166 14.9024 17.1834 15.2929 16.7929L18.5858 13.5H9C8.44772 13.5 8 13.0523 8 12.5C8 11.9477 8.44772 11.5 9 11.5H18.5858L15.2929 8.20711C14.9024 7.81658 14.9024 7.18342 15.2929 6.79289Z" fill="currentColor"/>
      </g>
    </symbol>
    <symbol id="message" viewBox="0 0 18 16" fill="none">
      <path d="M7.75036 8.00004H3.16702M3.09648 8.24296L1.15071 14.0552C0.997847 14.5118 0.921417 14.7401 0.976267 14.8807C1.0239 15.0028 1.1262 15.0954 1.25244 15.1306C1.3978 15.1712 1.61736 15.0724 2.05647 14.8748L15.9827 8.60799C16.4113 8.41512 16.6256 8.31868 16.6918 8.18471C16.7494 8.06832 16.7494 7.93176 16.6918 7.81537C16.6256 7.6814 16.4113 7.58497 15.9827 7.39209L2.05161 1.12314C1.61383 0.926139 1.39493 0.827637 1.24971 0.868044C1.1236 0.903136 1.0213 0.995457 0.973507 1.11733C0.91847 1.25766 0.994084 1.48547 1.14531 1.9411L3.09702 7.82131C3.12299 7.89957 3.13598 7.9387 3.14111 7.97871C3.14565 8.01422 3.14561 8.05017 3.14097 8.08567C3.13574 8.12567 3.12265 8.16477 3.09648 8.24296Z" stroke="currentColor" stroke-opacity="0.5" stroke-width="1.66667" stroke-linecap="round" stroke-linejoin="round"/>
    </symbol>
    <symbol id="login" viewBox="0 0 18 18" fill="none">
      <path d="M4 13.1667C4 13.4594 4 13.6058 4.01306 13.7331C4.12146 14.7895 4.8855 15.6622 5.91838 15.9093C6.04279 15.939 6.18792 15.9584 6.47807 15.9971L11.9713 16.7295C13.535 16.938 14.3169 17.0423 14.9237 16.801C15.4565 16.5891 15.9002 16.2006 16.1806 15.7005C16.5 15.1309 16.5 14.3421 16.5 12.7646V5.23541C16.5 3.65787 16.5 2.8691 16.1806 2.2995C15.9002 1.7994 15.4565 1.41088 14.9237 1.19904C14.3169 0.957756 13.535 1.062 11.9713 1.2705L6.47807 2.00293C6.18788 2.04162 6.04279 2.06097 5.91838 2.09073C4.8855 2.33781 4.12145 3.21049 4.01306 4.26696C4 4.39421 4 4.54059 4 4.83334M9 5.66668L12.3333 9.00001M12.3333 9.00001L9 12.3333M12.3333 9.00001H1.5" stroke="currentColor" stroke-width="1.66667" stroke-linecap="round" stroke-linejoin="round"/>
    </symbol>
    <symbol id="signal" viewBox="0 0 22 18" fill="none">
      <path d="M15.2426 4.75735C17.5858 7.1005 17.5858 10.8995 15.2426 13.2426M6.75736 13.2426C4.41421 10.8995 4.41421 7.10046 6.75736 4.75732M3.92893 16.0711C0.0236893 12.1658 0.0236893 5.83417 3.92893 1.92892M18.0711 1.92897C21.9763 5.83421 21.9763 12.1659 18.0711 16.0711M13 8.99999C13 10.1046 12.1046 11 11 11C9.89543 11 9 10.1046 9 8.99999C9 7.89542 9.89543 6.99999 11 6.99999C12.1046 6.99999 13 7.89542 13 8.99999Z" stroke="currentColor" stroke-width="2" stroke-linecap="round" stroke-linejoin="round"/>
    </symbol>
    <symbol id="face" viewBox="0 0 24 24" fill="none">
      <path d="M15 9H15.01M9 9H9.01M22 12C22 17.5228 17.5228 22 12 22C6.47715 22 2 17.5228 2 12C2 6.47715 6.47715 2 12 2C17.5228 2 22 6.47715 22 12ZM15.5 9C15.5 9.27614 15.2761 9.5 15 9.5C14.7239 9.5 14.5 9.27614 14.5 9C14.5 8.72386 14.7239 8.5 15 8.5C15.2761 8.5 15.5 8.72386 15.5 9ZM9.5 9C9.5 9.27614 9.27614 9.5 9 9.5C8.72386 9.5 8.5 9.27614 8.5 9C8.5 8.72386 8.72386 8.5 9 8.5C9.27614 8.5 9.5 8.72386 9.5 9ZM12 17.5C14.5005 17.5 16.5 15.667 16.5 14H7.5C7.5 15.667 9.4995 17.5 12 17.5Z" stroke="currentColor" stroke-width="2" stroke-linecap="round" stroke-linejoin="round"/>
    </symbol>
    <symbol id="link" viewBox="0 0 32 32" fill="none">
      <path d="M22 14L22 10M22 10H18M22 10L16 16M14.6667 10H13.2C12.0799 10 11.5198 10 11.092 10.218C10.7157 10.4097 10.4097 10.7157 10.218 11.092C10 11.5198 10 12.0799 10 13.2V18.8C10 19.9201 10 20.4802 10.218 20.908C10.4097 21.2843 10.7157 21.5903 11.092 21.782C11.5198 22 12.0799 22 13.2 22H18.8C19.9201 22 20.4802 22 20.908 21.782C21.2843 21.5903 21.5903 21.2843 21.782 20.908C22 20.4802 22 19.9201 22 18.8V17.3333" stroke="currentColor" stroke-width="1.33333" stroke-linecap="round" stroke-linejoin="round"/>
    </symbol>
    <symbol id="camera-plus" viewBox="0 0 24 24" fill="none">
      <g>
        <path d="M22 11.5V14.6C22 16.8402 22 17.9603 21.564 18.816C21.1805 19.5686 20.5686 20.1805 19.816 20.564C18.9603 21 17.8402 21 15.6 21H8.4C6.15979 21 5.03969 21 4.18404 20.564C3.43139 20.1805 2.81947 19.5686 2.43597 18.816C2 17.9603 2 16.8402 2 14.6V9.4C2 7.15979 2 6.03969 2.43597 5.18404C2.81947 4.43139 3.43139 3.81947 4.18404 3.43597C5.03969 3 6.15979 3 8.4 3H12.5M19 8V2M16 5H22M16 12C16 14.2091 14.2091 16 12 16C9.79086 16 8 14.2091 8 12C8 9.79086 9.79086 8 12 8C14.2091 8 16 9.79086 16 12Z" stroke="currentColor" stroke-width="2" stroke-linecap="round" stroke-linejoin="round"/>
      </g>
    </symbol>
    <symbol id="check" viewBox="0 0 18 13" fill="none">
      <path d="M17 1L6 12L1 7" stroke="currentColor" stroke-width="2" stroke-linecap="round" stroke-linejoin="round" />
    </symbol>
    <symbol id="copy" viewBox="0 0 20 20" fill="none">
      <path d="M13.3333 13.3327V15.666C13.3333 16.5994 13.3333 17.0661 13.1516 17.4227C12.9918 17.7363 12.7369 17.9912 12.4233 18.151C12.0668 18.3327 11.6 18.3327 10.6666 18.3327H4.33329C3.39987 18.3327 2.93316 18.3327 2.57664 18.151C2.26304 17.9912 2.00807 17.7363 1.84828 17.4227C1.66663 17.0661 1.66663 16.5994 1.66663 15.666V9.33268C1.66663 8.39926 1.66663 7.93255 1.84828 7.57603C2.00807 7.26243 2.26304 7.00746 2.57664 6.84767C2.93316 6.66602 3.39987 6.66602 4.33329 6.66602H6.66663M9.33329 13.3327H15.6666C16.6 13.3327 17.0668 13.3327 17.4233 13.151C17.7369 12.9912 17.9918 12.7363 18.1516 12.4227C18.3333 12.0661 18.3333 11.5994 18.3333 10.666V4.33268C18.3333 3.39926 18.3333 2.93255 18.1516 2.57603C17.9918 2.26243 17.7369 2.00746 17.4233 1.84767C17.0668 1.66602 16.6 1.66602 15.6666 1.66602H9.33329C8.39987 1.66602 7.93316 1.66602 7.57664 1.84767C7.26304 2.00746 7.00807 2.26243 6.84828 2.57603C6.66663 2.93255 6.66663 3.39926 6.66663 4.33268V10.666C6.66663 11.5994 6.66663 12.0661 6.84828 12.4227C7.00807 12.7363 7.26304 12.9912 7.57664 13.151C7.93316 13.3327 8.39987 13.3327 9.33329 13.3327Z" stroke="currentColor" stroke-width="1.66667" stroke-linecap="round" stroke-linejoin="round" />
    </symbol>
    <symbol id="user" viewBox="0 0 24 25" fill="none">
      <g>
        <path d="M3 20.5C5.33579 18.0226 8.50702 16.5 12 16.5C15.493 16.5 18.6642 18.0226 21 20.5M16.5 8C16.5 10.4853 14.4853 12.5 12 12.5C9.51472 12.5 7.5 10.4853 7.5 8C7.5 5.51472 9.51472 3.5 12 3.5C14.4853 3.5 16.5 5.51472 16.5 8Z" stroke="currentColor" stroke-width="2" stroke-linecap="round" stroke-linejoin="round"/>
      </g>
    </symbol>
    <symbol id="nostrich" viewBox="0 0 24 24" fill="none">
      <g>
        <path d="M17.7084 10.1607C18.1683 13.3466 14.8705 14.0207 12.9733 13.9618C12.8515 13.958 12.7366 14.0173 12.6647 14.1157C12.4684 14.384 12.1547 14.7309 11.9125 14.7309C11.6405 14.7309 11.3957 15.254 11.284 15.5795C11.2723 15.6137 11.3059 15.6452 11.3403 15.634C14.345 14.6584 15.5241 14.3238 16.032 14.4178C16.4421 14.4937 17.209 15.8665 17.5413 16.5434C16.7155 16.5909 16.4402 15.8507 16.2503 15.7178C16.0985 15.6116 16.0415 16.0974 16.032 16.3536C15.8517 16.2587 15.6239 16.1259 15.6049 15.7178C15.5859 15.3098 15.3771 15.4142 15.2157 15.4332C15.0544 15.4521 12.5769 16.2493 12.2067 16.3536C11.8366 16.458 11.4094 16.6004 11.0582 16.8471C10.4697 17.1318 10.09 16.9325 9.98561 16.4485C9.90208 16.0614 10.4444 14.8701 10.726 14.3229C10.3779 14.4526 9.65529 14.7158 9.54898 14.7309C9.44588 14.7457 8.13815 15.7552 7.43879 16.3038C7.398 16.3358 7.37174 16.3827 7.36236 16.4336C7.25047 17.0416 6.89335 17.2118 6.27423 17.5303C5.77602 17.7867 4.036 20.4606 3.14127 21.9041C3.0794 22.0039 2.9886 22.0806 2.8911 22.1461C2.32279 22.5276 1.74399 23.4985 1.50923 23.9737C1.17511 23.0095 1.61048 22.1802 1.86993 21.886C1.75602 21.7873 1.49341 21.8449 1.37634 21.886C1.69907 20.7757 2.82862 20.7757 2.79066 20.7757C2.99948 20.5954 5.44842 17.0938 5.50538 16.9325C5.56187 16.7725 5.46892 16.0242 6.69975 15.6139C6.7193 15.6073 6.73868 15.5984 6.75601 15.5873C7.71493 14.971 8.43427 13.9774 8.67571 13.5542C7.39547 13.4662 5.92943 12.7525 5.16289 12.294C4.99765 12.1952 4.8224 12.1092 4.63108 12.0875C3.58154 11.9687 2.53067 12.6401 2.10723 13.0228C1.93258 12.7799 2.12938 12.0739 2.24961 11.7513C1.82437 11.6905 1.19916 12.308 0.939711 12.6243C0.658747 12.184 0.904907 11.397 1.06311 11.0585C0.501179 11.0737 0.120232 11.3306 0 11.4571C0.465109 7.99343 4.02275 9.00076 4.06259 9.04675C3.87275 8.84937 3.88857 8.59126 3.92021 8.48688C6.0749 8.54381 7.08105 8.18321 7.71702 7.81313C12.7288 5.01374 14.8882 6.73133 15.6856 7.1631C16.4829 7.59487 17.9304 7.77042 18.9318 7.37187C20.1278 6.83097 19.9478 5.43673 19.7054 4.90461C19.4397 4.32101 17.9399 3.51438 17.4084 2.49428C16.8768 1.47418 17.34 0.233672 17.9558 0.0607684C18.5425 -0.103972 18.9615 0.0876835 19.2831 0.378128C19.4974 0.571763 20.0994 0.710259 20.3509 0.800409C20.6024 0.890558 21.0201 1.00918 20.9964 1.08035C20.9726 1.15152 20.5699 1.14202 20.5075 1.14202C20.3794 1.14202 20.2275 1.161 20.3794 1.23217C20.5575 1.30439 20.8263 1.40936 20.955 1.47846C20.9717 1.48744 20.9683 1.51084 20.95 1.51577C20.0765 1.75085 19.2966 1.26578 18.7183 1.82526C18.1298 2.39463 19.3827 2.83114 20.0282 3.51438C20.6736 4.19762 21.3381 5.01372 20.8065 6.87365C20.395 8.31355 18.6703 9.53781 17.7795 10.0167C17.7282 10.0442 17.7001 10.1031 17.7084 10.1607Z" fill="currentColor"/>
      </g>
    </symbol>
    <symbol id="plus" viewBox="0 0 24 24" fill="none">
      <path d="M12 5V19M5 12H19" stroke="currentColor" stroke-width="2" stroke-linecap="round" stroke-linejoin="round" />
    </symbol>
    <symbol id="toggle-off" viewBox="0 0 24 24" fill="none">
      <path fill-rule="evenodd" clip-rule="evenodd" d="M8 5C4.13401 5 1 8.13401 1 12C1 15.866 4.13401 19 8 19H16C19.866 19 23 15.866 23 12C23 8.13401 19.866 5 16 5H8ZM12 12C12 14.2091 10.2091 16 8 16C5.79086 16 4 14.2091 4 12C4 9.79086 5.79086 8 8 8C10.2091 8 12 9.79086 12 12Z" fill="currentColor" />
    </symbol>
    <symbol id="toggle-on" viewBox="0 0 24 24" fill="none">
      <path fill-rule="evenodd" clip-rule="evenodd" d="M16 5C19.866 5 23 8.13401 23 12C23 15.866 19.866 19 16 19H8C4.13401 19 1 15.866 1 12C1 8.13401 4.13401 5 8 5H16ZM12 12C12 14.2091 13.7909 16 16 16C18.2091 16 20 14.2091 20 12C20 9.79086 18.2091 8 16 8C13.7909 8 12 9.79086 12 12Z" fill="currentColor" />
    </symbol>
    <symbol id="badge" viewBox="0 0 24 24" fill="none">
      <path d="M8.87625 13.0953L4.70122 7.87653C4.44132 7.55166 4.31138 7.38922 4.21897 7.20834C4.13698 7.04787 4.07706 6.87705 4.04084 6.70052C4 6.50155 4 6.29354 4 5.8775V5.2C4 4.0799 4 3.51984 4.21799 3.09202C4.40973 2.71569 4.71569 2.40973 5.09202 2.21799C5.51984 2 6.0799 2 7.2 2H16.8C17.9201 2 18.4802 2 18.908 2.21799C19.2843 2.40973 19.5903 2.71569 19.782 3.09202C20 3.51984 20 4.0799 20 5.2V5.8775C20 6.29354 20 6.50155 19.9592 6.70052C19.9229 6.87705 19.863 7.04787 19.781 7.20834C19.6886 7.38922 19.5587 7.55166 19.2988 7.87652L15.1238 13.0953M5.00005 3L12.0001 12L19 3M15.5355 13.4645C17.4882 15.4171 17.4882 18.5829 15.5355 20.5355C13.5829 22.4882 10.4171 22.4882 8.46446 20.5355C6.51185 18.5829 6.51185 15.4171 8.46446 13.4645C10.4171 11.5118 13.5829 11.5118 15.5355 13.4645Z" stroke="currentColor" stroke-width="2" stroke-linecap="round" stroke-linejoin="round"/>
    </symbol>
    <symbol id="piggybank" viewBox="0 0 24 24" fill="none">
      <path d="M4.99993 13C4.99993 9.68629 7.68622 7 10.9999 7M4.99993 13C4.99993 14.6484 5.66466 16.1415 6.74067 17.226C6.84445 17.3305 6.89633 17.3828 6.92696 17.4331C6.95619 17.4811 6.9732 17.5224 6.98625 17.5771C6.99993 17.6343 6.99993 17.6995 6.99993 17.8298V20.2C6.99993 20.48 6.99993 20.62 7.05443 20.727C7.10236 20.8211 7.17885 20.8976 7.27293 20.9455C7.37989 21 7.5199 21 7.79993 21H9.69993C9.97996 21 10.12 21 10.2269 20.9455C10.321 20.8976 10.3975 20.8211 10.4454 20.727C10.4999 20.62 10.4999 20.48 10.4999 20.2V19.8C10.4999 19.52 10.4999 19.38 10.5544 19.273C10.6024 19.1789 10.6789 19.1024 10.7729 19.0545C10.8799 19 11.0199 19 11.2999 19H12.6999C12.98 19 13.12 19 13.2269 19.0545C13.321 19.1024 13.3975 19.1789 13.4454 19.273C13.4999 19.38 13.4999 19.52 13.4999 19.8V20.2C13.4999 20.48 13.4999 20.62 13.5544 20.727C13.6024 20.8211 13.6789 20.8976 13.7729 20.9455C13.8799 21 14.0199 21 14.2999 21H16.2C16.48 21 16.62 21 16.727 20.9455C16.8211 20.8976 16.8976 20.8211 16.9455 20.727C17 20.62 17 20.48 17 20.2V19.2243C17 19.0223 17 18.9212 17.0288 18.8401C17.0563 18.7624 17.0911 18.708 17.15 18.6502C17.2114 18.59 17.3155 18.5417 17.5237 18.445C18.5059 17.989 19.344 17.2751 19.9511 16.3902C20.0579 16.2346 20.1112 16.1568 20.1683 16.1108C20.2228 16.0668 20.2717 16.0411 20.3387 16.021C20.4089 16 20.4922 16 20.6587 16H21.2C21.48 16 21.62 16 21.727 15.9455C21.8211 15.8976 21.8976 15.8211 21.9455 15.727C22 15.62 22 15.48 22 15.2V11.7857C22 11.5192 22 11.3859 21.9505 11.283C21.9013 11.181 21.819 11.0987 21.717 11.0495C21.6141 11 21.4808 11 21.2143 11C21.0213 11 20.9248 11 20.8471 10.9738C20.7633 10.9456 20.7045 10.908 20.6437 10.8438C20.5874 10.7842 20.5413 10.6846 20.4493 10.4855C20.1538 9.84622 19.7492 9.26777 19.2593 8.77404C19.1555 8.66945 19.1036 8.61716 19.073 8.56687C19.0437 8.51889 19.0267 8.47759 19.0137 8.42294C19 8.36567 19 8.30051 19 8.17018V7.06058C19 6.70053 19 6.52051 18.925 6.39951C18.8593 6.29351 18.7564 6.21588 18.6365 6.18184C18.4995 6.14299 18.3264 6.19245 17.9802 6.29136L15.6077 6.96922C15.5673 6.98074 15.5472 6.9865 15.5267 6.99054C15.5085 6.99414 15.4901 6.99671 15.4716 6.99826C15.4508 7 15.4297 7 15.3874 7H10.9999M4.99993 13H4C2.89543 13 2 12.1046 2 11C2 10.2597 2.4022 9.61337 3 9.26756M10.9999 7H14.9646C14.9879 6.8367 15 6.66976 15 6.5C15 4.567 13.433 3 11.5 3C9.567 3 8 4.567 8 6.5C8 6.9172 8.073 7.31736 8.20692 7.68839C9.04114 7.24881 9.99144 7 10.9999 7Z" stroke="currentColor" stroke-width="2" stroke-linecap="round" stroke-linejoin="round"/>
    </symbol>
    <symbol id="note" viewBox="0 0 24 24" fill="none">
      <path d="M7 8.5H12M7 12H15M9.68375 18H16.2C17.8802 18 18.7202 18 19.362 17.673C19.9265 17.3854 20.3854 16.9265 20.673 16.362C21 15.7202 21 14.8802 21 13.2V7.8C21 6.11984 21 5.27976 20.673 4.63803C20.3854 4.07354 19.9265 3.6146 19.362 3.32698C18.7202 3 17.8802 3 16.2 3H7.8C6.11984 3 5.27976 3 4.63803 3.32698C4.07354 3.6146 3.6146 4.07354 3.32698 4.63803C3 5.27976 3 6.11984 3 7.8V20.3355C3 20.8684 3 21.1348 3.10923 21.2716C3.20422 21.3906 3.34827 21.4599 3.50054 21.4597C3.67563 21.4595 3.88367 21.2931 4.29976 20.9602L6.68521 19.0518C7.17252 18.662 7.41617 18.4671 7.68749 18.3285C7.9282 18.2055 8.18443 18.1156 8.44921 18.0613C8.74767 18 9.0597 18 9.68375 18Z" stroke="currentColor" stroke-width="2" stroke-linecap="round" stroke-linejoin="round"/>
    </symbol>
    <symbol id="face-content" viewBox="0 0 24 24" fill="none">
      <path d="M8 14C8 14 9.5 16 12 16C14.5 16 16 14 16 14M17 9.24C16.605 9.725 16.065 10 15.5 10C14.935 10 14.41 9.725 14 9.24M10 9.24C9.605 9.725 9.065 10 8.5 10C7.935 10 7.41 9.725 7 9.24M22 12C22 17.5228 17.5228 22 12 22C6.47715 22 2 17.5228 2 12C2 6.47715 6.47715 2 12 2C17.5228 2 22 6.47715 22 12Z" stroke="currentColor" stroke-width="2" stroke-linecap="round" stroke-linejoin="round"/>
    </symbol>
    <symbol id="user-x" viewBox="0 0 24 24" fill="none">
      <path d="M16.5 16L21.5 21M21.5 16L16.5 21M15.5 3.29076C16.9659 3.88415 18 5.32131 18 7C18 8.67869 16.9659 10.1159 15.5 10.7092M12 15H8C6.13623 15 5.20435 15 4.46927 15.3045C3.48915 15.7105 2.71046 16.4892 2.30448 17.4693C2 18.2044 2 19.1362 2 21M13.5 7C13.5 9.20914 11.7091 11 9.5 11C7.29086 11 5.5 9.20914 5.5 7C5.5 4.79086 7.29086 3 9.5 3C11.7091 3 13.5 4.79086 13.5 7Z" stroke="currentColor" stroke-width="2" stroke-linecap="round" stroke-linejoin="round"/>
    </symbol>
    <symbol id="settings" viewBox="0 0 24 24" fill="none">
      <path d="M12 15C13.6569 15 15 13.6569 15 12C15 10.3431 13.6569 9 12 9C10.3431 9 9 10.3431 9 12C9 13.6569 10.3431 15 12 15Z" stroke="currentColor" stroke-width="2" stroke-linecap="round" stroke-linejoin="round"/>
      <path d="M18.7273 14.7273C18.6063 15.0015 18.5702 15.3056 18.6236 15.6005C18.6771 15.8954 18.8177 16.1676 19.0273 16.3818L19.0818 16.4364C19.2509 16.6052 19.385 16.8057 19.4765 17.0265C19.568 17.2472 19.6151 17.4838 19.6151 17.7227C19.6151 17.9617 19.568 18.1983 19.4765 18.419C19.385 18.6397 19.2509 18.8402 19.0818 19.0091C18.913 19.1781 18.7124 19.3122 18.4917 19.4037C18.271 19.4952 18.0344 19.5423 17.7955 19.5423C17.5565 19.5423 17.3199 19.4952 17.0992 19.4037C16.8785 19.3122 16.678 19.1781 16.5091 19.0091L16.4545 18.9545C16.2403 18.745 15.9682 18.6044 15.6733 18.5509C15.3784 18.4974 15.0742 18.5335 14.8 18.6545C14.5311 18.7698 14.3018 18.9611 14.1403 19.205C13.9788 19.4489 13.8921 19.7347 13.8909 20.0273V20.1818C13.8909 20.664 13.6994 21.1265 13.3584 21.4675C13.0174 21.8084 12.5549 22 12.0727 22C11.5905 22 11.1281 21.8084 10.7871 21.4675C10.4461 21.1265 10.2545 20.664 10.2545 20.1818V20.1C10.2475 19.7991 10.1501 19.5073 9.97501 19.2625C9.79991 19.0176 9.55521 18.8312 9.27273 18.7273C8.99853 18.6063 8.69437 18.5702 8.39947 18.6236C8.10456 18.6771 7.83244 18.8177 7.61818 19.0273L7.56364 19.0818C7.39478 19.2509 7.19425 19.385 6.97353 19.4765C6.7528 19.568 6.51621 19.6151 6.27727 19.6151C6.03834 19.6151 5.80174 19.568 5.58102 19.4765C5.36029 19.385 5.15977 19.2509 4.99091 19.0818C4.82186 18.913 4.68775 18.7124 4.59626 18.4917C4.50476 18.271 4.45766 18.0344 4.45766 17.7955C4.45766 17.5565 4.50476 17.3199 4.59626 17.0992C4.68775 16.8785 4.82186 16.678 4.99091 16.5091L5.04545 16.4545C5.25503 16.2403 5.39562 15.9682 5.4491 15.6733C5.50257 15.3784 5.46647 15.0742 5.34545 14.8C5.23022 14.5311 5.03887 14.3018 4.79497 14.1403C4.55107 13.9788 4.26526 13.8921 3.97273 13.8909H3.81818C3.33597 13.8909 2.87351 13.6994 2.53253 13.3584C2.19156 13.0174 2 12.5549 2 12.0727C2 11.5905 2.19156 11.1281 2.53253 10.7871C2.87351 10.4461 3.33597 10.2545 3.81818 10.2545H3.9C4.2009 10.2475 4.49273 10.1501 4.73754 9.97501C4.98236 9.79991 5.16883 9.55521 5.27273 9.27273C5.39374 8.99853 5.42984 8.69437 5.37637 8.39947C5.3229 8.10456 5.18231 7.83244 4.97273 7.61818L4.91818 7.56364C4.74913 7.39478 4.61503 7.19425 4.52353 6.97353C4.43203 6.7528 4.38493 6.51621 4.38493 6.27727C4.38493 6.03834 4.43203 5.80174 4.52353 5.58102C4.61503 5.36029 4.74913 5.15977 4.91818 4.99091C5.08704 4.82186 5.28757 4.68775 5.50829 4.59626C5.72901 4.50476 5.96561 4.45766 6.20455 4.45766C6.44348 4.45766 6.68008 4.50476 6.9008 4.59626C7.12152 4.68775 7.32205 4.82186 7.49091 4.99091L7.54545 5.04545C7.75971 5.25503 8.03183 5.39562 8.32674 5.4491C8.62164 5.50257 8.9258 5.46647 9.2 5.34545H9.27273C9.54161 5.23022 9.77093 5.03887 9.93245 4.79497C10.094 4.55107 10.1807 4.26526 10.1818 3.97273V3.81818C10.1818 3.33597 10.3734 2.87351 10.7144 2.53253C11.0553 2.19156 11.5178 2 12 2C12.4822 2 12.9447 2.19156 13.2856 2.53253C13.6266 2.87351 13.8182 3.33597 13.8182 3.81818V3.9C13.8193 4.19253 13.906 4.47834 14.0676 4.72224C14.2291 4.96614 14.4584 5.15749 14.7273 5.27273C15.0015 5.39374 15.3056 5.42984 15.6005 5.37637C15.8954 5.3229 16.1676 5.18231 16.3818 4.97273L16.4364 4.91818C16.6052 4.74913 16.8057 4.61503 17.0265 4.52353C17.2472 4.43203 17.4838 4.38493 17.7227 4.38493C17.9617 4.38493 18.1983 4.43203 18.419 4.52353C18.6397 4.61503 18.8402 4.74913 19.0091 4.91818C19.1781 5.08704 19.3122 5.28757 19.4037 5.50829C19.4952 5.72901 19.5423 5.96561 19.5423 6.20455C19.5423 6.44348 19.4952 6.68008 19.4037 6.9008C19.3122 7.12152 19.1781 7.32205 19.0091 7.49091L18.9545 7.54545C18.745 7.75971 18.6044 8.03183 18.5509 8.32674C18.4974 8.62164 18.5335 8.9258 18.6545 9.2V9.27273C18.7698 9.54161 18.9611 9.77093 19.205 9.93245C19.4489 10.094 19.7347 10.1807 20.0273 10.1818H20.1818C20.664 10.1818 21.1265 10.3734 21.4675 10.7144C21.8084 11.0553 22 11.5178 22 12C22 12.4822 21.8084 12.9447 21.4675 13.2856C21.1265 13.6266 20.664 13.8182 20.1818 13.8182H20.1C19.8075 13.8193 19.5217 13.906 19.2778 14.0676C19.0339 14.2291 18.8425 14.4584 18.7273 14.7273Z" stroke="currentColor" stroke-width="2" stroke-linecap="round" stroke-linejoin="round"/>
    </symbol>
    <symbol id="widget" viewBox="0 0 24 24" fill="none">
      <path d="M11 4H7.8C6.11984 4 5.27976 4 4.63803 4.32698C4.07354 4.6146 3.6146 5.07354 3.32698 5.63803C3 6.27976 3 7.11984 3 8.8V16.2C3 17.8802 3 18.7202 3.32698 19.362C3.6146 19.9265 4.07354 20.3854 4.63803 20.673C5.27976 21 6.11984 21 7.8 21H15.2C16.8802 21 17.7202 21 18.362 20.673C18.9265 20.3854 19.3854 19.9265 19.673 19.362C20 18.7202 20 17.8802 20 16.2V13M13 17H7M15 13H7M20.1213 3.87868C21.2929 5.05025 21.2929 6.94975 20.1213 8.12132C18.9497 9.29289 17.0503 9.29289 15.8787 8.12132C14.7071 6.94975 14.7071 5.05025 15.8787 3.87868C17.0503 2.70711 18.9497 2.70711 20.1213 3.87868Z" stroke="currentColor" stroke-width="2" stroke-linecap="round" stroke-linejoin="round"/>
    </symbol>
    <symbol id="play" viewBox="0 0 24 24" fill="none">
      <path fill-rule="evenodd" clip-rule="evenodd" d="M8.00625 2.8023C8.0182 2.81028 8.03019 2.81827 8.04222 2.82629L18.591 9.85878C18.8962 10.0622 19.1792 10.2509 19.3965 10.4261C19.6234 10.6091 19.8908 10.8628 20.0447 11.2339C20.2481 11.7244 20.2481 12.2756 20.0447 12.7661C19.8908 13.1372 19.6234 13.3909 19.3965 13.5738C19.1792 13.7491 18.8962 13.9377 18.591 14.1412L8.00628 21.1977C7.63319 21.4464 7.29772 21.6701 7.01305 21.8244C6.72818 21.9788 6.33717 22.1552 5.8808 22.1279C5.29705 22.0931 4.75779 21.8045 4.40498 21.3381C4.12916 20.9735 4.05905 20.5503 4.02949 20.2276C3.99994 19.9052 3.99997 19.502 4 19.0536L4 4.98962C4 4.97516 4 4.96075 4 4.94638C3.99997 4.49798 3.99994 4.09479 4.02949 3.77236C4.05905 3.44971 4.12916 3.02651 4.40498 2.6619C4.75779 2.19552 5.29705 1.90692 5.8808 1.87207C6.33717 1.84482 6.72818 2.02123 7.01305 2.17561C7.29771 2.32988 7.63317 2.55355 8.00625 2.8023Z" fill="currentColor"/>
    </symbol>
    <symbol id="pause" viewBox="0 0 24 24" fill="none">
      <path d="M20.25 4.5V19.5C20.25 19.8978 20.092 20.2794 19.8107 20.5607C19.5294 20.842 19.1478 21 18.75 21H15C14.6022 21 14.2206 20.842 13.9393 20.5607C13.658 20.2794 13.5 19.8978 13.5 19.5V4.5C13.5 4.10218 13.658 3.72064 13.9393 3.43934C14.2206 3.15804 14.6022 3 15 3H18.75C19.1478 3 19.5294 3.15804 19.8107 3.43934C20.092 3.72064 20.25 4.10218 20.25 4.5ZM9 3H5.25C4.85218 3 4.47064 3.15804 4.18934 3.43934C3.90804 3.72064 3.75 4.10218 3.75 4.5V19.5C3.75 19.8978 3.90804 20.2794 4.18934 20.5607C4.47064 20.842 4.85218 21 5.25 21H9C9.39782 21 9.77936 20.842 10.0607 20.5607C10.342 20.2794 10.5 19.8978 10.5 19.5V4.5C10.5 4.10218 10.342 3.72064 10.0607 3.43934C9.77936 3.15804 9.39782 3 9 3Z" fill="currentColor"/>
    </symbol>
    <symbol id="volume" viewBox="0 0 24 24" fill="none">
      <path fill-rule="evenodd" clip-rule="evenodd" d="M19.1639 4.18822C19.6123 3.8657 20.2372 3.96769 20.5597 4.41602C22.0953 6.55072 23 9.17119 23 12C23 14.8288 22.0953 17.4493 20.5597 19.584C20.2372 20.0323 19.6123 20.1343 19.1639 19.8118C18.7156 19.4893 18.6136 18.8644 18.9361 18.416C20.2352 16.6102 21 14.3959 21 12C21 9.60407 20.2352 7.38974 18.9361 5.58396C18.6136 5.13563 18.7156 4.51073 19.1639 4.18822Z" fill="currentColor"/>
      <path fill-rule="evenodd" clip-rule="evenodd" d="M15.1732 7.17981C15.6262 6.86385 16.2495 6.97492 16.5655 7.4279C17.4696 8.7241 18 10.3016 18 12C18 13.6984 17.4696 15.2759 16.5655 16.5721C16.2495 17.0251 15.6262 17.1361 15.1732 16.8202C14.7202 16.5042 14.6092 15.8809 14.9251 15.4279C15.6027 14.4564 16 13.2761 16 12C16 10.7239 15.6027 9.54355 14.9251 8.57209C14.6092 8.11912 14.7202 7.49577 15.1732 7.17981Z" fill="currentColor"/>
      <path fill-rule="evenodd" clip-rule="evenodd" d="M10.3823 2.71172C10.861 2.67405 11.3288 2.86781 11.6406 3.23293C11.9199 3.55988 11.9642 3.95313 11.9811 4.14402C12.0001 4.35799 12 4.62375 12 4.89413C12 4.90653 12 4.91895 12 4.93136L12 19.1059C12 19.3762 12.0001 19.642 11.9811 19.856C11.9642 20.0469 11.9199 20.4401 11.6406 20.7671C11.3288 21.1322 10.861 21.3259 10.3823 21.2883C9.95368 21.2545 9.64424 21.0078 9.4973 20.8848C9.33259 20.7469 9.14469 20.559 8.95353 20.3677L5.76153 17.1757C5.6689 17.0831 5.6225 17.037 5.58738 17.005L5.58472 17.0026L5.58114 17.0024C5.53365 17.0002 5.46826 17 5.33726 17L3.56812 17C3.31574 17 3.06994 17.0001 2.86178 16.983C2.63318 16.9644 2.36345 16.9203 2.09202 16.782C1.7157 16.5903 1.40974 16.2843 1.21799 15.908C1.07969 15.6366 1.03563 15.3668 1.01695 15.1382C0.999943 14.9301 0.999973 14.6843 1 14.4319L1.00001 9.59999C1.00001 9.58935 1 9.57872 1 9.5681C0.999973 9.31571 0.999943 9.06992 1.01695 8.86176C1.03563 8.63317 1.07969 8.36344 1.21799 8.09201C1.40974 7.71569 1.7157 7.40973 2.09202 7.21798C2.36345 7.07968 2.63318 7.03562 2.86178 7.01694C3.06993 6.99993 3.31572 6.99996 3.56811 6.99999C3.57873 6.99999 3.58936 6.99999 3.60001 6.99999H5.33726C5.46826 6.99999 5.53365 6.99976 5.58114 6.99758L5.58472 6.99741L5.58738 6.995C5.6225 6.96295 5.6689 6.91689 5.76153 6.82426L8.92721 3.65857C8.936 3.64979 8.94477 3.64101 8.95354 3.63224C9.1447 3.44102 9.33259 3.25308 9.4973 3.11518C9.64424 2.99217 9.95368 2.74546 10.3823 2.71172Z" fill="currentColor"/>
    </symbol>
    <symbol id="loading" viewBox="0 0 24 24" fill="none">
      <path fill-rule="evenodd" clip-rule="evenodd" d="M12 1.25C12.5523 1.25 13 1.69772 13 2.25V4.75C13 5.30228 12.5523 5.75 12 5.75C11.4477 5.75 11 5.30228 11 4.75V2.25C11 1.69772 11.4477 1.25 12 1.25Z" fill="currentColor"/>
      <path fill-rule="evenodd" clip-rule="evenodd" d="M12 17C12.5523 17 13 17.4477 13 18V22C13 22.5523 12.5523 23 12 23C11.4477 23 11 22.5523 11 22V18C11 17.4477 11.4477 17 12 17Z" fill="currentColor"/>
      <path fill-rule="evenodd" clip-rule="evenodd" d="M1.25 12C1.25 11.4477 1.69772 11 2.25 11H5.75C6.30228 11 6.75 11.4477 6.75 12C6.75 12.5523 6.30228 13 5.75 13H2.25C1.69772 13 1.25 12.5523 1.25 12Z" fill="currentColor"/>
      <path fill-rule="evenodd" clip-rule="evenodd" d="M18.75 12C18.75 11.4477 19.1977 11 19.75 11H21.25C21.8023 11 22.25 11.4477 22.25 12C22.25 12.5523 21.8023 13 21.25 13H19.75C19.1977 13 18.75 12.5523 18.75 12Z" fill="currentColor"/>
      <path fill-rule="evenodd" clip-rule="evenodd" d="M17.0429 17.0429C17.4334 16.6524 18.0666 16.6524 18.4571 17.0429L19.1642 17.75C19.5547 18.1405 19.5547 18.7737 19.1642 19.1642C18.7737 19.5547 18.1405 19.5547 17.75 19.1642L17.0429 18.4571C16.6524 18.0666 16.6524 17.4334 17.0429 17.0429Z" fill="currentColor"/>
      <path fill-rule="evenodd" clip-rule="evenodd" d="M19.3713 4.70868C19.7618 5.0992 19.7618 5.73237 19.3713 6.12289L17.9571 7.53711C17.5666 7.92763 16.9334 7.92763 16.5429 7.53711C16.1524 7.14658 16.1524 6.51342 16.5429 6.12289L17.9571 4.70868C18.3476 4.31816 18.9808 4.31816 19.3713 4.70868Z" fill="currentColor"/>
      <path fill-rule="evenodd" clip-rule="evenodd" d="M8.45711 15.5429C8.84763 15.9334 8.84763 16.5666 8.45711 16.9571L5.62868 19.7855C5.23815 20.1761 4.60499 20.1761 4.21447 19.7855C3.82394 19.395 3.82394 18.7618 4.21447 18.3713L7.04289 15.5429C7.43342 15.1524 8.06658 15.1524 8.45711 15.5429Z" fill="currentColor"/>
      <path fill-rule="evenodd" clip-rule="evenodd" d="M4.42157 4.50157C4.8121 4.11105 5.44526 4.11105 5.83579 4.50157L7.95711 6.62289C8.34763 7.01342 8.34763 7.64658 7.95711 8.03711C7.56658 8.42763 6.93342 8.42763 6.54289 8.03711L4.42157 5.91579C4.03105 5.52526 4.03105 4.8921 4.42157 4.50157Z" fill="currentColor"/>
    </symbol>
    <symbol id="fullscreen" viewBox="0 0 24 24" fill="none">
      <path d="M20.25 3.75H3.75C3.35218 3.75 2.97064 3.90804 2.68934 4.18934C2.40804 4.47064 2.25 4.85218 2.25 5.25V18.75C2.25 19.1478 2.40804 19.5294 2.68934 19.8107C2.97064 20.092 3.35218 20.25 3.75 20.25H20.25C20.6478 20.25 21.0294 20.092 21.3107 19.8107C21.592 19.5294 21.75 19.1478 21.75 18.75V5.25C21.75 4.85218 21.592 4.47064 21.3107 4.18934C21.0294 3.90804 20.6478 3.75 20.25 3.75ZM8.25 18H5.25C5.05109 18 4.86032 17.921 4.71967 17.7803C4.57902 17.6397 4.5 17.4489 4.5 17.25V14.25C4.5 14.0511 4.57902 13.8603 4.71967 13.7197C4.86032 13.579 5.05109 13.5 5.25 13.5C5.44891 13.5 5.63968 13.579 5.78033 13.7197C5.92098 13.8603 6 14.0511 6 14.25V16.5H8.25C8.44891 16.5 8.63968 16.579 8.78033 16.7197C8.92098 16.8603 9 17.0511 9 17.25C9 17.4489 8.92098 17.6397 8.78033 17.7803C8.63968 17.921 8.44891 18 8.25 18ZM19.5 9.75C19.5 9.94891 19.421 10.1397 19.2803 10.2803C19.1397 10.421 18.9489 10.5 18.75 10.5C18.5511 10.5 18.3603 10.421 18.2197 10.2803C18.079 10.1397 18 9.94891 18 9.75V7.5H15.75C15.5511 7.5 15.3603 7.42098 15.2197 7.28033C15.079 7.13968 15 6.94891 15 6.75C15 6.55109 15.079 6.36032 15.2197 6.21967C15.3603 6.07902 15.5511 6 15.75 6H18.75C18.9489 6 19.1397 6.07902 19.2803 6.21967C19.421 6.36032 19.5 6.55109 19.5 6.75V9.75Z" fill="currentColor"/>
    </symbol>
    <symbol id="volume-muted" viewBox="0 0 24 24" fill="none">
      <path d="M14.58 2.32607C14.4538 2.26442 14.3127 2.23947 14.173 2.25405C14.0333 2.26864 13.9005 2.32218 13.7897 2.40857L7.24219 7.50013H3C2.60218 7.50013 2.22064 7.65817 1.93934 7.93947C1.65804 8.22077 1.5 8.6023 1.5 9.00013V15.0001C1.5 15.398 1.65804 15.7795 1.93934 16.0608C2.22064 16.3421 2.60218 16.5001 3 16.5001H7.24219L13.7897 21.5917C13.921 21.6946 14.0831 21.7504 14.25 21.7501C14.4489 21.7501 14.6397 21.6711 14.7803 21.5305C14.921 21.3898 15 21.199 15 21.0001V3.00013C15.0001 2.85972 14.9608 2.72211 14.8865 2.60294C14.8123 2.48378 14.7061 2.38785 14.58 2.32607Z" fill="currentColor"/>
      <path d="M21.3107 12.0004L23.031 10.281C23.1718 10.1403 23.2508 9.94944 23.2508 9.75042C23.2508 9.55139 23.1718 9.36052 23.031 9.21979C22.8903 9.07906 22.6994 9 22.5004 9C22.3014 9 22.1105 9.07906 21.9698 9.21979L20.2504 10.9401L18.531 9.21979C18.3903 9.07906 18.1994 9 18.0004 9C17.8014 9 17.6105 9.07906 17.4698 9.21979C17.3291 9.36052 17.25 9.55139 17.25 9.75042C17.25 9.94944 17.3291 10.1403 17.4698 10.281L19.1901 12.0004L17.4698 13.7198C17.3291 13.8605 17.25 14.0514 17.25 14.2504C17.25 14.4494 17.3291 14.6403 17.4698 14.781C17.6105 14.9218 17.8014 15.0008 18.0004 15.0008C18.1994 15.0008 18.3903 14.9218 18.531 14.781L20.2504 13.0607L21.9698 14.781C22.1105 14.9218 22.3014 15.0008 22.5004 15.0008C22.6994 15.0008 22.8903 14.9218 23.031 14.781C23.1718 14.6403 23.2508 14.4494 23.2508 14.2504C23.2508 14.0514 23.1718 13.8605 23.031 13.7198L21.3107 12.0004Z" fill="currentColor"/>
    </symbol>
  </defs>
</svg>
