<svg width="160" height="160" viewBox="0 0 160 160" fill="none"
    xmlns="http://www.w3.org/2000/svg">
    <path fill-rule="evenodd" clip-rule="evenodd" d="M82.4852 54.5094L87.7882 48.2773C87.8525 48.2098 87.9174 48.1429 87.9826 48.0768C94.4927 41.1346 103.63 36.8165 113.748 36.8165C133.516 36.8165 149.541 53.2997 149.541 73.6327C149.541 82.0501 146.795 89.8077 142.174 96.0093L142.197 96.029L141.843 96.4456C141.126 97.3799 140.364 98.2774 139.563 99.1352L87.9613 160L43.5147 158.617L58.9832 140.033L112.875 76.6987C114.038 75.3317 113.873 73.2807 112.506 72.1175C111.139 70.9544 109.088 71.1196 107.925 72.4865L71.2247 115.617C64.7813 121.963 55.8992 125.885 46.0917 125.885C26.4118 125.885 10.458 110.093 10.458 90.6136C10.458 81.6851 13.8096 73.5314 19.3355 67.318L76.4941 3.75969e-05L120.334 8.27526e-08L51.0699 81.3993C49.9068 82.7663 50.072 84.8173 51.4389 85.9805C52.8059 87.1437 54.857 86.9784 56.0201 85.6115L72.1945 66.6032C72.207 66.6164 72.2194 66.6297 72.2319 66.643L82.4852 54.5094Z" fill="white"/>
</svg>
