<svg xmlns="http://www.w3.org/2000/svg" width="33" height="23" viewBox="0 0 33 23" fill="none">
  <path d="M32.7877 1.72093C32.3558 0.67677 31.3439 0 30.216 0H10.6802C10.6738 0 10.6673 0 10.6609 0C10.6545 0 10.648 0 10.6416 0C6.54235 0 3.21012 3.33229 3.21012 7.42513C3.21012 9.5779 4.13825 11.5824 5.70446 12.9746L0.812466 17.8667C0.0132476 18.666 -0.225229 19.8584 0.206607 20.8961C0.638443 21.9402 1.65036 22.617 2.77829 22.617H22.314C22.3205 22.617 22.3269 22.617 22.3398 22.617C22.3463 22.617 22.3527 22.617 22.3656 22.617C26.4584 22.617 29.7906 19.2847 29.7906 15.1919C29.7906 13.0391 28.8625 11.0346 27.2963 9.64236L32.1882 4.75028C32.981 3.95105 33.2195 2.75864 32.7877 1.72093ZM2.71383 19.8584C2.6945 19.8132 2.70739 19.8004 2.73317 19.7746L8.10856 14.3991L22.3914 19.4523C22.4043 19.4587 22.4236 19.4652 22.4365 19.4652C22.4558 19.4716 22.4752 19.4781 22.4945 19.491C22.5267 19.5103 22.5525 19.5425 22.5718 19.5812C22.5783 19.5877 22.5783 19.5941 22.5847 19.6005C22.5912 19.6134 22.5912 19.6263 22.5912 19.6392C22.5912 19.6521 22.5976 19.665 22.5976 19.6779C22.5976 19.7939 22.4687 19.897 22.3269 19.897H2.78473C2.75251 19.9099 2.73317 19.9099 2.71383 19.8584ZM25.208 18.956C25.208 18.9496 25.2015 18.9367 25.2015 18.9302C25.1757 18.8271 25.1435 18.7304 25.1048 18.6337C25.0984 18.6208 25.0984 18.6079 25.092 18.5951C25.0533 18.4919 25.0017 18.3952 24.9502 18.2986C24.9437 18.2857 24.9308 18.2663 24.9244 18.2535C24.8148 18.0601 24.6859 17.8796 24.5377 17.712C24.5248 17.6991 24.5119 17.6863 24.499 17.6734C24.4216 17.596 24.3443 17.5187 24.2605 17.4478C24.2476 17.4413 24.2347 17.4284 24.2283 17.422C24.1509 17.3575 24.0672 17.2995 23.9769 17.2415C23.964 17.2351 23.9511 17.2222 23.9382 17.2157C23.848 17.1577 23.7513 17.1062 23.6547 17.0546C23.6353 17.0417 23.6095 17.0353 23.5902 17.0224C23.4935 16.9773 23.3904 16.9321 23.2808 16.8999L16.6744 14.5602L9.03668 11.8596L9.0109 11.8531C9.00446 11.8531 9.00446 11.8531 8.99801 11.8467C8.8111 11.7758 8.62418 11.692 8.43727 11.5953C6.88395 10.7768 5.9236 9.17829 5.9236 7.42513C5.9236 5.89112 6.65836 4.52469 7.79918 3.661C7.79918 3.66745 7.80563 3.68034 7.80563 3.68678C7.83141 3.78347 7.86364 3.88015 7.90231 3.97683C7.9152 4.00906 7.92809 4.04128 7.94098 4.07351C7.97321 4.14441 8.00543 4.20886 8.03766 4.27976C8.05055 4.31199 8.06989 4.34422 8.08278 4.37C8.1279 4.45379 8.17946 4.53114 8.23747 4.60848C8.26325 4.64071 8.28258 4.67293 8.30836 4.70516C8.35348 4.76317 8.3986 4.82118 8.45016 4.87274C8.4695 4.89852 8.48883 4.92431 8.51462 4.94364C8.57907 5.01454 8.65641 5.079 8.72731 5.14345C8.75309 5.16923 8.77887 5.18857 8.8111 5.20791C8.882 5.26591 8.9529 5.31748 9.03024 5.36904C9.04313 5.38193 9.05602 5.38838 9.07536 5.40127C9.16559 5.45928 9.26227 5.51084 9.35895 5.55596C9.38473 5.56885 9.41051 5.58174 9.43629 5.59463C9.53942 5.63975 9.64254 5.68487 9.74567 5.71709L24.0091 10.7639C24.0156 10.7639 24.022 10.7703 24.022 10.7703C24.209 10.8412 24.3894 10.9186 24.5634 11.0152C26.1168 11.8338 27.0771 13.4323 27.0771 15.1854C27.0836 16.7259 26.3423 18.0923 25.208 18.956ZM30.2675 2.83599L24.8922 8.21147C24.8793 8.20503 24.8599 8.19858 24.847 8.19214L10.6222 3.1647C10.6029 3.15826 10.5836 3.15181 10.5707 3.14537H10.5642C10.5449 3.13892 10.532 3.13248 10.5127 3.11959C10.5062 3.11314 10.4998 3.1067 10.4933 3.10025C10.4804 3.09381 10.474 3.08091 10.4675 3.07447C10.4611 3.06802 10.4547 3.05513 10.4547 3.04869C10.4482 3.0358 10.4418 3.02291 10.4353 3.01001C10.4353 3.00357 10.4289 2.99068 10.4289 2.97779C10.4289 2.9649 10.4224 2.94556 10.4224 2.92622C10.4224 2.91333 10.4289 2.90689 10.4289 2.894C10.4482 2.79732 10.5642 2.71352 10.6867 2.71352H30.2289C30.2611 2.71352 30.2804 2.71352 30.2998 2.75864C30.3062 2.79732 30.2933 2.81665 30.2675 2.83599Z" fill="black"/>
</svg>