<svg xmlns="http://www.w3.org/2000/svg" width="48" height="48" viewBox="0 0 48 48" fill="none">
  <rect width="48" height="48" rx="16" fill="white"/>
  <path d="M40.587 14.4695C40.217 13.5767 39.3543 13 38.3879 13H18.4399C18.4303 13 18.4207 13.0013 18.4111 13.0013C18.4066 13.0013 18.4022 13 18.3977 13C14.4725 13 11.2788 16.193 11.2788 20.1182C11.2788 22.3519 12.3188 24.4159 14.0507 25.7504L8.69828 31.1028C8.01539 31.7857 7.8125 32.8039 8.18243 33.6968C8.55236 34.5896 9.4151 35.1662 10.3815 35.1662H30.3243C30.3352 35.1662 30.3455 35.165 30.3563 35.1643C30.3615 35.1643 30.3666 35.1662 30.3723 35.1662C34.2975 35.1662 37.4906 31.9732 37.4906 28.048C37.4906 25.8144 36.4505 23.7503 34.7187 22.4152L40.0711 17.0628C40.754 16.3799 40.9569 15.3623 40.587 14.4695ZM9.88487 32.9921C9.84327 32.8923 9.77222 32.635 10.0013 32.4059L15.7 26.7072C15.7666 26.7347 15.8344 26.7603 15.9023 26.7859C15.9055 26.7872 15.9087 26.7885 15.9119 26.7897C15.9164 26.7917 15.9208 26.7929 15.9253 26.7949C15.9285 26.7961 15.9317 26.7974 15.9349 26.7987L15.9407 26.8006C15.9426 26.8013 15.9439 26.8019 15.9458 26.8025L26.8708 30.6657L30.5503 31.9668C30.5535 31.9681 30.5573 31.9687 30.5605 31.97C30.5669 31.9726 30.5739 31.9745 30.5803 31.977C30.7595 32.0334 30.9016 32.1569 30.9842 32.315C30.9848 32.3156 30.9855 32.3162 30.9855 32.3175C30.9976 32.3406 31.0066 32.3649 31.0156 32.3892C31.0194 32.3988 31.0239 32.4078 31.0271 32.4174C31.0335 32.4372 31.0373 32.4577 31.0418 32.4782C31.045 32.4935 31.0501 32.5083 31.0527 32.5236C31.0559 32.5415 31.0559 32.5607 31.0572 32.5793C31.0584 32.5979 31.0616 32.6164 31.0616 32.635C31.0616 32.6414 31.0597 32.6471 31.0597 32.6529C31.0482 33.0177 30.7167 33.323 30.3243 33.323H10.3822C10.0577 33.3243 9.92647 33.0919 9.88487 32.9921ZM35.6486 28.048C35.6486 30.0404 34.5382 31.7786 32.9036 32.6759C32.9036 32.6657 32.9036 32.6548 32.9036 32.6446C32.9036 32.6439 32.9036 32.6433 32.9036 32.6433C32.9036 32.6427 32.9036 32.642 32.9036 32.6414C32.9036 32.6388 32.9036 32.6369 32.9036 32.6343C32.9036 32.6036 32.901 32.5735 32.8998 32.5428C32.8985 32.5063 32.8985 32.4692 32.8953 32.4327C32.8934 32.4059 32.8889 32.379 32.8857 32.3521C32.8812 32.3111 32.8774 32.2708 32.871 32.2305C32.8678 32.2106 32.8626 32.1914 32.8594 32.1716C32.8511 32.1249 32.8428 32.0788 32.8313 32.0327C32.8281 32.0206 32.8242 32.0084 32.821 31.9956C32.8076 31.9431 32.7935 31.8913 32.7769 31.8401C32.775 31.835 32.773 31.8298 32.7711 31.8241C32.6265 31.3908 32.3673 31.0068 32.0223 30.7117C32.0191 30.7092 32.0159 30.7066 32.0127 30.7041C31.966 30.6644 31.918 30.626 31.8681 30.5895C31.8565 30.5812 31.8444 30.5741 31.8329 30.5658C31.7906 30.5364 31.7484 30.5069 31.7042 30.4794C31.6812 30.4653 31.6568 30.4532 31.6338 30.4397C31.5999 30.4205 31.566 30.4 31.5308 30.3821C31.4962 30.3648 31.461 30.3495 31.4252 30.3335C31.3989 30.322 31.374 30.3085 31.3477 30.2976C31.3042 30.2797 31.2594 30.2644 31.2152 30.2484C31.196 30.2413 31.1775 30.2336 31.1583 30.2272L16.6152 25.0847L16.6133 25.0841L16.6095 25.0828L16.5775 25.0713C16.5736 25.07 16.5692 25.0681 16.5653 25.0668C16.3548 24.9887 16.1429 24.894 15.9362 24.7846C14.1998 23.8668 13.1214 22.0786 13.1214 20.1182C13.1214 18.1259 14.2318 16.3876 15.8664 15.4897C15.8664 15.5037 15.8658 15.5172 15.8658 15.5313C15.8658 15.5402 15.8664 15.5485 15.8671 15.5575C15.8677 15.5908 15.8696 15.6241 15.8709 15.6573C15.8728 15.6945 15.8741 15.7322 15.878 15.7693C15.8812 15.8007 15.885 15.8308 15.8888 15.8621C15.894 15.9012 15.8991 15.9409 15.9061 15.9793C15.9112 16.0061 15.9164 16.033 15.9221 16.0599C15.9311 16.1021 15.9407 16.1444 15.9516 16.186C15.9573 16.2084 15.9637 16.2301 15.9708 16.2519C15.9842 16.2974 15.9989 16.3428 16.0143 16.3876C16.0207 16.4055 16.0271 16.4228 16.0341 16.4401C16.0527 16.4881 16.0719 16.5354 16.093 16.5822C16.0994 16.5962 16.1058 16.6097 16.1122 16.6238C16.1359 16.673 16.1608 16.721 16.1871 16.769C16.1935 16.7799 16.1992 16.7914 16.2056 16.8023C16.2338 16.8516 16.2639 16.899 16.2952 16.9463C16.3016 16.9553 16.3074 16.9649 16.3138 16.9738C16.3464 17.0212 16.381 17.0673 16.4168 17.1121C16.4239 17.1204 16.4303 17.1294 16.4373 17.1377C16.4738 17.1818 16.5116 17.2247 16.5506 17.2663C16.5583 17.2747 16.566 17.2836 16.5743 17.2919C16.6133 17.3323 16.6537 17.3707 16.6953 17.4084C16.7049 17.4174 16.7145 17.4263 16.7241 17.4353C16.7644 17.4711 16.8066 17.5044 16.8501 17.5377C16.8623 17.5473 16.8738 17.5569 16.886 17.5659C16.9276 17.5966 16.9705 17.6254 17.0146 17.6535C17.0293 17.6631 17.0441 17.6734 17.0594 17.683C17.1017 17.7092 17.1452 17.7329 17.1893 17.7572C17.2073 17.7668 17.2239 17.7771 17.2418 17.7867C17.286 17.8091 17.3321 17.8295 17.3775 17.8494C17.3961 17.8577 17.4146 17.8667 17.4338 17.875C17.494 17.8993 17.5554 17.9217 17.6182 17.9415C17.6233 17.9435 17.6284 17.9454 17.6335 17.9473L20.4925 18.9585L32.2137 23.1045C32.2188 23.1065 32.2245 23.109 32.2277 23.1097C32.4332 23.1871 32.638 23.2786 32.8345 23.3829C34.5702 24.2994 35.6486 26.0876 35.6486 28.048ZM38.7687 15.7604L33.0694 21.4597C33.0092 21.4347 32.9484 21.4111 32.8882 21.3887C32.8876 21.3887 32.887 21.388 32.887 21.388C32.8863 21.388 32.8857 21.3874 32.885 21.3874C32.8831 21.3867 32.8806 21.3855 32.8786 21.3848C32.8716 21.3823 32.8646 21.3791 32.8575 21.3765C32.853 21.3746 32.8486 21.3733 32.8447 21.372C32.8441 21.372 32.8434 21.3714 32.8434 21.3714L32.8345 21.3682C32.8076 21.3586 32.7814 21.349 32.7545 21.3394L18.2319 16.2033C18.2198 16.1988 18.2076 16.1949 18.1948 16.1911C18.157 16.1796 18.1212 16.1649 18.0873 16.1476C18.079 16.1437 18.0719 16.138 18.0636 16.1335C18.038 16.1194 18.013 16.1047 17.99 16.0881C17.983 16.0829 17.9766 16.0765 17.9695 16.0708C17.9471 16.0529 17.9247 16.0343 17.9049 16.0138C17.8991 16.0081 17.894 16.001 17.8882 15.9946C17.869 15.9735 17.8505 15.9511 17.8338 15.9274C17.8287 15.9204 17.8242 15.9121 17.8198 15.9044C17.8044 15.8807 17.7903 15.857 17.7782 15.8314C17.7737 15.8218 17.7698 15.8116 17.766 15.802C17.7558 15.7783 17.7462 15.754 17.7391 15.7284C17.7353 15.7156 17.7327 15.7021 17.7295 15.6893C17.7244 15.6663 17.7193 15.6433 17.7161 15.6202C17.7142 15.6042 17.7129 15.5876 17.7122 15.5709C17.711 15.5511 17.7103 15.5313 17.711 15.5114C17.7116 15.4865 17.7148 15.4621 17.7186 15.4378C17.7218 15.4148 17.7244 15.3911 17.7308 15.3687C17.734 15.3559 17.7385 15.3444 17.7423 15.3322C17.8338 15.0512 18.118 14.842 18.4418 14.842H38.3898C38.7143 14.842 38.8455 15.0743 38.8871 15.1741C38.9268 15.274 38.9978 15.5313 38.7687 15.7604Z" fill="black"/>
</svg>