<svg xmlns="http://www.w3.org/2000/svg">
  <defs>
    <symbol id="zap" viewBox="0 0 16 20" fill="none">
      <path d="M8.8333 1.70166L1.41118 10.6082C1.12051 10.957 0.975169 11.1314 0.972948 11.2787C0.971017 11.4068 1.02808 11.5286 1.12768 11.6091C1.24226 11.7017 1.46928 11.7017 1.92333 11.7017H7.99997L7.16663 18.3683L14.5888 9.46178C14.8794 9.11297 15.0248 8.93857 15.027 8.79128C15.0289 8.66323 14.9719 8.54141 14.8723 8.46092C14.7577 8.36833 14.5307 8.36833 14.0766 8.36833H7.99997L8.8333 1.70166Z" stroke="currentColor" stroke-width="1.66667" stroke-linecap="round" stroke-linejoin="round" />
    </symbol>
    <symbol id="search" viewBox="0 0 20 21" fill="none">
      <path d="M19 19.5L14.65 15.15M17 9.5C17 13.9183 13.4183 17.5 9 17.5C4.58172 17.5 1 13.9183 1 9.5C1 5.08172 4.58172 1.5 9 1.5C13.4183 1.5 17 5.08172 17 9.5Z" stroke="currentColor" stroke-width="2" stroke-linecap="round" stroke-linejoin="round" />
    </symbol>
    <symbol id="logout" viewBox="0 0 22 20" fill="none">
      <path d="M17 6L21 10M21 10L17 14M21 10H8M14 2.20404C12.7252 1.43827 11.2452 1 9.66667 1C4.8802 1 1 5.02944 1 10C1 14.9706 4.8802 19 9.66667 19C11.2452 19 12.7252 18.5617 14 17.796" stroke="currentColor" stroke-width="2" stroke-linecap="round" stroke-linejoin="round" />
    </symbol>
    <symbol id="message" viewBox="0 0 18 16" fill="none">
      <path d="M7.75036 8.00004H3.16702M3.09648 8.24296L1.15071 14.0552C0.997847 14.5118 0.921417 14.7401 0.976267 14.8807C1.0239 15.0028 1.1262 15.0954 1.25244 15.1306C1.3978 15.1712 1.61736 15.0724 2.05647 14.8748L15.9827 8.60799C16.4113 8.41512 16.6256 8.31868 16.6918 8.18471C16.7494 8.06832 16.7494 7.93176 16.6918 7.81537C16.6256 7.6814 16.4113 7.58497 15.9827 7.39209L2.05161 1.12314C1.61383 0.926139 1.39493 0.827637 1.24971 0.868044C1.1236 0.903136 1.0213 0.995457 0.973507 1.11733C0.91847 1.25766 0.994084 1.48547 1.14531 1.9411L3.09702 7.82131C3.12299 7.89957 3.13598 7.9387 3.14111 7.97871C3.14565 8.01422 3.14561 8.05017 3.14097 8.08567C3.13574 8.12567 3.12265 8.16477 3.09648 8.24296Z" stroke="currentColor" stroke-opacity="0.5" stroke-width="1.66667" stroke-linecap="round" stroke-linejoin="round"/>
    </symbol>
    <symbol id="login" viewBox="0 0 18 18" fill="none">
      <path d="M4 13.1667C4 13.4594 4 13.6058 4.01306 13.7331C4.12146 14.7895 4.8855 15.6622 5.91838 15.9093C6.04279 15.939 6.18792 15.9584 6.47807 15.9971L11.9713 16.7295C13.535 16.938 14.3169 17.0423 14.9237 16.801C15.4565 16.5891 15.9002 16.2006 16.1806 15.7005C16.5 15.1309 16.5 14.3421 16.5 12.7646V5.23541C16.5 3.65787 16.5 2.8691 16.1806 2.2995C15.9002 1.7994 15.4565 1.41088 14.9237 1.19904C14.3169 0.957756 13.535 1.062 11.9713 1.2705L6.47807 2.00293C6.18788 2.04162 6.04279 2.06097 5.91838 2.09073C4.8855 2.33781 4.12145 3.21049 4.01306 4.26696C4 4.39421 4 4.54059 4 4.83334M9 5.66668L12.3333 9.00001M12.3333 9.00001L9 12.3333M12.3333 9.00001H1.5" stroke="currentColor" stroke-width="1.66667" stroke-linecap="round" stroke-linejoin="round"/>
    </symbol>
    <symbol id="signal" viewBox="0 0 22 18" fill="none">
      <path d="M15.2426 4.75735C17.5858 7.1005 17.5858 10.8995 15.2426 13.2426M6.75736 13.2426C4.41421 10.8995 4.41421 7.10046 6.75736 4.75732M3.92893 16.0711C0.0236893 12.1658 0.0236893 5.83417 3.92893 1.92892M18.0711 1.92897C21.9763 5.83421 21.9763 12.1659 18.0711 16.0711M13 8.99999C13 10.1046 12.1046 11 11 11C9.89543 11 9 10.1046 9 8.99999C9 7.89542 9.89543 6.99999 11 6.99999C12.1046 6.99999 13 7.89542 13 8.99999Z" stroke="currentColor" stroke-width="2" stroke-linecap="round" stroke-linejoin="round"/>
    </symbol>
  </defs>
</svg>